<svg width="61" height="61" viewBox="0 0 61 61" fill="none" xmlns="http://www.w3.org/2000/svg">
<circle cx="30.5" cy="30.5" r="30.5" fill="white"/>
<path d="M42 42.5V39.5C42 37.9087 41.3679 36.3826 40.2426 35.2574C39.1174 34.1321 37.5913 33.5 36 33.5H24C22.4087 33.5 20.8826 34.1321 19.7574 35.2574C18.6321 36.3826 18 37.9087 18 39.5V42.5" stroke="black" stroke-width="3" stroke-linecap="round" stroke-linejoin="round"/>
<path d="M30 27.5C33.3137 27.5 36 24.8137 36 21.5C36 18.1863 33.3137 15.5 30 15.5C26.6863 15.5 24 18.1863 24 21.5C24 24.8137 26.6863 27.5 30 27.5Z" stroke="black" stroke-width="3" stroke-linecap="round" stroke-linejoin="round"/>
</svg>
